<svg xmlns="http://www.w3.org/2000/svg" viewBox="0 0 60 60" class="trash-open"><path d="M49.4 10.2c-0.6-0.8-1.4-1.2-2.3-1.4l-9.4-1.3 0.4-3c0.1-0.8-0.1-1.6-0.6-2.2s-1.2-1.1-2-1.2L27.7 0c-1.7-0.2-3.2 0.9-3.4 2.6l-0.4 3L14.5 4.2c-2-0.3-3.7 1.1-4 3l-0.6 4.4 8.4 1.2 -5.9 5.9c-0.1 0.1-0.1 0.2-0.2 0.3h-1v37.3c0 2.1 1.7 3.7 3.7 3.7h28.5c2.1 0 3.7-1.7 3.7-3.7V19h-5v-2.8l7.3 1 0.6-4.4C50.2 11.9 50 11 49.4 10.2zM26.3 2.9c0.1-0.5 0.6-0.9 1.1-0.9l7.9 1.1c0.3 0 0.5 0.2 0.7 0.4 0.2 0.2 0.2 0.5 0.2 0.7l-0.4 3 -9.9-1.4L26.3 2.9zM14.9 19l3.6-3.6L22.1 19H14.9zM26.1 19v-1h6v1H26.1zM37.1 19v-1h3v1H37.1zM35.1 16v3h-1v-3h-10v2.2l-5.3-5.3L40.7 16H35.1z"/></svg>
